{"title":"Ronald.Goedemondt.Dedication.DVDRIP.XVID-MisterDeee","uid":6126754,"size":726122866,"categoryP":"video","categoryS":"tv_shows","magnet":"?xt=urn:btih:7f646664a847a2efdf1362bafb54b5c0072c7f8a&amp;dn=Ronald.Goedemondt.Dedication.DVDRIP.XVID-MisterDeee&amp;tr=udp%3A%2F%2Ftracker.openbittorrent.com%3A80&amp;tr=udp%3A%2F%2Fopen.demonii.com%3A1337&amp;tr=udp%3A%2F%2Ftracker.coppersurfer.tk%3A6969&amp;tr=udp%3A%2F%2Fexodus.desync.com%3A6969","seeders":2,"leechers":0,"uploader":"MisterDeee","files":-1,"time":1295966085,"description":"In zijn derde programma 'Dedication' zal Goedemondt geen moment onbenut laten om zijn publiek op zijn geheel eigen wijze te boeien en te verrassen en bovenal rollend van de lach op de theaterstoel achter te laten.\n\nWaar de voorstelling over gaat? Over het zonder verontschuldiging wraak nemen op de volwassen wereld. Schreeuwen, fluisteren, roddelen, vertellen en meenemen. Vooral dat laatste. Mensen meenemen naar een plek die helemaal van mij is. Of we aankomen doet er niet toe. Het gaat erom dat je meekomt.\n\nGeneral\nFormat                           : AVI\nFormat/Info                      : Audio Video Interleave\nFile size                        : 692 MiB\nDuration                         : 1h 29mn\nOverall bit rate                 : 1 080 Kbps\n\nVideo\nID                               : 0\nFormat                           : MPEG-4 Visual\nFormat profile                   : Simple@L3\nFormat settings, BVOP            : No\nFormat settings, QPel            : No\nFormat settings, GMC             : No warppoints\nFormat settings, Matrix          : Default (H.263)\nCodec ID                         : XVID\nCodec ID/Hint                    : XviD\nDuration                         : 1h 29mn\nBit rate                         : 850 Kbps\nWidth                            : 672 pixels\nHeight                           : 368 pixels\nDisplay aspect ratio             : 16:9\nFrame rate                       : 30.000 fps\nColor space                      : YUV\nChroma subsampling               : 4:2:0\nBit depth                        : 8 bits\nScan type                        : Progressive\nBits/(Pixel*Frame)               : 0.115\nStream size                      : 545 MiB (79%)\nWriting library                  : XviD 1.1.2 (UTC 2006-11-01)\n\nAudio\nID                               : 1\nFormat                           : AC-3\nFormat/Info                      : Audio Coding 3\nMode extension                   : CM (complete main)\nCodec ID                         : 2000\nDuration                         : 1h 29mn\nBit rate mode                    : Constant\nBit rate                         : 224 Kbps\nChannel(s)                       : 2 channels\nChannel positions                : Front: L R\nSampling rate                    : 48.0 KHz\nBit depth                        : 16 bits\nStream size                      : 144 MiB (21%)\nAlignment                        : Split accross interleaves\nInterleave, duration             : 500 ms (15.00 video frames)\nInterleave, preload duration     : 500 ms\n\nLeave your comment about Audio/Video/Movie.","torrent":{"xt":"urn:btih:7f646664a847a2efdf1362bafb54b5c0072c7f8a","amp;dn":"Ronald.Goedemondt.Dedication.DVDRIP.XVID-MisterDeee","amp;tr":["udp%3A%2F%2Ftracker.openbittorrent.com%3A80","udp%3A%2F%2Fopen.demonii.com%3A1337","udp%3A%2F%2Ftracker.coppersurfer.tk%3A6969","udp%3A%2F%2Fexodus.desync.com%3A6969"],"infoHash":"7f646664a847a2efdf1362bafb54b5c0072c7f8a","infoHashBuffer":{"type":"Buffer","data":[127,100,102,100,168,71,162,239,223,19,98,186,251,84,181,192,7,44,127,138]},"announce":[],"urlList":[]}}